<svg width="1194.1" height="533.3" version="1.1" xmlns="http://www.w3.org/2000/svg"><path transform="matrix(.13333 0 0 -.13333 0 533)" d="M8956 0H0v4000h8956V0" style="fill:#efd6ca"/><path transform="matrix(.13333 0 0 -.13333 0 533)" d="m3700 2532s-87-58-216-264c-73-118-172-198-172-198l271-125 117 127v460" style="fill:#ffae43"/><path transform="matrix(.13333 0 0 -.13333 0 533)" d="M2929 754V642l211 8v104h-211M2410 767V655l196 7v105h-196" style="fill:#f98875"/><path transform="matrix(.13333 0 0 -.13333 0 533)" d="m2654 469c0-20-6-42-20-48s-124-18-220-9c-93 8-112 15-119 23-3 4 4 24 11 43l1 3a937 937 0 0 0 21 44c10 14 30 42 35 57 7 20 17 62 24 82s23 24 23 24 190 13 204 2c13-12 20-105 20-119v-14c0-13 9-39 15-61a188 188 0 0 0 5-27m842-40c-13-5-551-20-564 0-4 6-6 26-8 52-5 60-5 150-5 150s-4 31-3 45 260 9 260 9l168-133s47 8 97 0c27-4 44-37 53-68 7-27 8-53 2-55" style="fill:#ea573f"/><path transform="matrix(.13333 0 0 -.13333 0 533)" d="m2891 1977s154-218 249-598 88-660 88-660h-359s-9 232-49 422c-39 190-94 391-94 391l-41-813h-359s54 1047 96 1183 469 75 469 75" style="fill:#1c9492"/><path transform="matrix(.13333 0 0 -.13333 0 533)" d="m3301 2460s70 87 98 76-33-82-33-82l86-7s95-18 107-33c13-15-27-29-27-29s68-11 45-36c-22-25-70-21-70-21s67-8 38-35c-16-15-181-30-265 15-84 44-18 124-18 124l39 28" style="fill:#f98875"/><path transform="matrix(.13333 0 0 -.13333 0 533)" d="m3314 2364c-15 0-26 5-27 6a4 4 0 0 0 3 6c1 0 23-11 43 0 17 10 27 32 31 68 0 2 2 3 4 3s3-2 3-4c-3-38-15-63-34-74-8-4-16-5-23-5"/><path transform="matrix(.13333 0 0 -.13333 0 533)" d="m2703 2625s145-10 230-84c84-74 144-160 162-172 19-13 181 86 181 86s82-225 79-236c-3-10-182-138-314-152-113-11-235 118-235 118l-103 440" style="fill:#fdc300"/><path transform="matrix(.13333 0 0 -.13333 0 533)" d="m2511 1921s309-12 341 38c52 80-32 303-32 303l-117 363-118-14-73-339-1-351" style="fill:#c5ede9"/><path transform="matrix(.13333 0 0 -.13333 0 533)" d="m2584 2658 1-68s26-21 59-21c44 0 59 34 59 34l-2 79-117-24" style="fill:#f98875"/><path transform="matrix(.13333 0 0 -.13333 0 533)" d="m2584 2658s27-55 77-47c41 7 40 64 40 64l-117-17"/><path transform="matrix(.13333 0 0 -.13333 0 533)" d="m2718 2854s26-121-13-180c-38-59-90-43-113-26-32 24-39 57-39 57s-42-9-57 25c-16 37 10 66 32 69 21 2 24-2 24-2l-7 39s127 146 173 18" style="fill:#f98875"/><path transform="matrix(.13333 0 0 -.13333 0 533)" d="m2699 2797s64 28 70-22c7-58-63-59-63-59l-7 81" style="fill:#f98875"/><path transform="matrix(.13333 0 0 -.13333 0 533)" d="m2541 2793s23-9 70 26c47 36 33 77 33 77s65-40 81-90c15-51 19 120-55 115-74-4-184-54-129-128m191-48a4 4 0 0 0-4 5l21 38c1 2 4 2 5 1 2-1 3-3 2-5l-21-37-3-2m-187-5-2 1-33 28a4 4 0 0 0 4 6l34-28c1-1 2-4 0-5 0-1-1-2-3-2"/><path transform="matrix(.13333 0 0 -.13333 0 533)" d="m2515 2735a4 4 0 0 0-2 6l19 15c2 2 4 1 5 0 2-2 1-4 0-6l-20-14-2-1m242 21h-19a4 4 0 0 0 0 8h19a4 4 0 0 0 0-8m-152 16c-2 0-4 1-4 3l-2 21a4 4 0 1 0 7 1l3-21c0-2-2-4-4-4m80 8c-2 0-4 2-4 3l-2 21c0 2 1 4 3 4 2 1 4-1 4-3l2-21a4 4 0 0 0-3-4m-28-56h-1c-2 0-3 2-3 4 5 31-7 56-7 56a4 4 0 1 0 7 4c1-2 12-28 7-61 0-2-1-3-3-3m-26-21c3-4 7-7 12-6 4 0 8 2 12 4zm11-14c-14 0-22 15-23 16v4l4 2 42-3a4 4 0 0 0 2-7 43 43 0 0 0-25-12m51 135-3 1c-7 6-19 5-19 5-2 0-4 2-4 4s1 4 3 4c1 0 16 1 25-7a4 4 0 0 0-2-7m-95-9a4 4 0 0 0-3 7c10 8 25 7 25 7a4 4 0 0 0 0-8s-13 1-20-5l-2-1"/><path transform="matrix(.13333 0 0 -.13333 0 533)" d="m2885 2385s59-471 52-482c-7-10-82-25-82-25s-20 183-62 407c-42 223-90 340-90 340l182-240" style="fill:#fdc300"/><path transform="matrix(.13333 0 0 -.13333 0 533)" d="m3095 2356c-7-25-16-68-7-83 2-2 5-4 8-4 3-1 5 0 7 2 10 12 0 58-8 85zm2-95h-2c-6 1-10 4-13 8-16 25 9 98 10 101a4 4 0 0 0 7 0c3-9 26-84 9-104-2-3-6-5-11-5" style="fill:#ea573f"/><path transform="matrix(.13333 0 0 -.13333 0 533)" d="m3469 2326-3 2-36 83a4 4 0 0 0 7 3l36-83a4 4 0 0 0-4-5M2401 715c-2 0-4 2-4 4l59 1183c0 3 2 4 4 4s3-2 3-4l-58-1183c0-2-2-4-4-4"/><path transform="matrix(.13333 0 0 -.13333 0 533)" d="m2585 2611s-170 1-318-153-206-403-48-477 340-61 340-61l25 247-50 14s30 264 51 430" style="fill:#fdc300"/><path transform="matrix(.13333 0 0 -.13333 0 533)" d="m2401 1977v-99h90l20 130-110-31" style="fill:#f7c537"/><path transform="matrix(.13333 0 0 -.13333 0 533)" d="m2584 2167-441 85s-49-150 26-235c74-84 390-97 390-97l25 247" style="fill:#f7c537"/><path transform="matrix(.13333 0 0 -.13333 0 533)" d="m2561 549h-2c-45 21-101 0-102 0-2-1-4 0-5 2 0 2 1 4 3 5s59 22 108 0a4 4 0 0 0-2-7m4 51h-2c-45 21-102 0-102 0-2-1-4 0-5 2s0 4 2 5c3 1 60 22 108 0 2-1 3-3 2-5s-2-2-3-2m592 9-2 1c-2 2-2 4 0 6 25 23 73 29 75 30 2 0 4-2 4-4 1-2-1-4-3-4a159 159 0 0 1-74-29m37-51-2 1c-2 1-2 3-1 5 27 50 88 43 89 43a4 4 0 0 0-1-7c-1 0-57 6-82-40l-3-2" style="fill:#fff"/><path transform="matrix(.13333 0 0 -.13333 0 533)" d="m2726 1528c-2 0-4 2-3 4 4 89 0 225 0 226-1 2 1 4 2 4l124 39c2 1 4 0 5-3 1-2-1-4-3-4l-120-38c0-21 4-143-1-225 0-2-1-3-4-3"/><path transform="matrix(.13333 0 0 -.13333 0 533)" d="m2929 715c-2 0-3 2-3 4s-12 250-60 472c-49 223-140 436-141 438a4 4 0 0 0 7 3c1-2 93-216 141-439s60-471 60-474c0-2-1-4-3-4h-1"/><path transform="matrix(.13333 0 0 -.13333 0 533)" d="m2318 2286-1-5c3-26 46-49 65-57a204 204 0 0 1-64 62zm72-74-2 1c-3 1-74 29-78 67-1 11 3 13 6 14 18 4 71-59 77-77a4 4 0 0 0-3-5m253 353c-41 0-64 29-64 29a4 4 0 1 0 6 5c1-2 29-35 78-24 36 8 42 35 42 36 0 2 2 4 4 3 2 0 4-2 3-4 0-1-6-33-48-42l-21-3" style="fill:#ea573f"/><path transform="matrix(.13333 0 0 -.13333 0 533)" d="m3887 689-6 87h-204v-117l210 30m542 63-38 75-212-21 32-117 218 63" style="fill:#f98875"/><path transform="matrix(.13333 0 0 -.13333 0 533)" d="m4083 2079s16-149 62-319c45-171 71-389 79-412 8-24 219-467 214-478-6-11-326-121-342-121s-171 383-185 436l-14 54 47-498s-347-10-352 0c-4 11-87 442-78 567 8 125 163 683 163 683l406 88" style="fill:#ea573f"/><path transform="matrix(.13333 0 0 -.13333 0 533)" d="m4425 784s-211-52-225-66c-14-13-143-177-143-177s-61-38-77-81 9-86 19-89 513 121 522 134c10 12-46 183-96 279m-531-72s-217 3-234-6c-17-10-189-135-189-135s-69-20-97-58c-28-37-16-84-8-90 8-5 526-13 539-3s9 187-11 292"/><path transform="matrix(.13333 0 0 -.13333 0 533)" d="m3471 568a4 4 0 0 0-1 7l113 9c2 0 4-2 4-4s-1-4-3-4l-113-8m586-31c-2 0-3 1-4 3-1 1 1 4 2 4l91 32c2 0 4-1 5-3s0-4-2-4l-91-32h-1" style="fill:#ffae43"/><path transform="matrix(.13333 0 0 -.13333 0 533)" d="m4072 1857c-3 0-75 7-99 64-1 3 0 5 2 6s4 0 5-2c22-53 92-60 92-60 3-1 4-2 4-5 0-2-2-3-4-3m-175-622c-2 0-3 0-4 2 0 1-30 65-47 134-21 79-20 262-20 289l-150 39a4 4 0 1 0 2 8l153-40c2-1 3-2 3-4s-2-208 19-290c18-68 47-132 47-133a4 4 0 0 0-3-5" style="fill:#f7c537"/><path transform="matrix(.13333 0 0 -.13333 0 533)" d="m3935 846-367-10 7-114 369 11-9 113m481 105 44-110-360-135-46 104 362 141" style="fill:#1c9492"/><path transform="matrix(.13333 0 0 -.13333 0 533)" d="m2734 2819s19 88-14 126c-13 15-38 3-38 3s-111 24-162-27c-51-50-15-135-15-135s17 27 36 7c20-20 23-40 23-40l3 69 42 68s25 27 54 16c30-11 71-87 71-87"/><path transform="matrix(.13333 0 0 -.13333 0 533)" d="m4118 2141c15 7-54 390-102 413-62 31-286 24-339-42-53-65-17-567-17-567l439 18 19 178" style="fill:#ffae43"/><path transform="matrix(.13333 0 0 -.13333 0 533)" d="m3913 2657 4-90s-15-27-68-34c-39-5-54 3-54 3l3 46 4 45 95 26 16 4" style="fill:#f98875"/><path transform="matrix(.13333 0 0 -.13333 0 533)" d="m3897 2653-3-9c-18-46-73-59-96-62l4 45 95 26"/><path transform="matrix(.13333 0 0 -.13333 0 533)" d="m3771 2833s-42-116-20-178c22-63 79-49 113-34 34 14 49 36 49 36s33-8 52 23c20 31 4 65-15 72-18 7-40-8-40-8l16 34s-84 162-155 55" style="fill:#f98875"/><path transform="matrix(.13333 0 0 -.13333 0 533)" d="m3786 2690-4 2c-9 24 6 50 7 51 1 2 3 2 5 1s2-3 1-5c0 0-14-24-6-44a4 4 0 0 0-3-5m133 1-3 1v5l28 35a4 4 0 1 0 6-5l-28-35-3-1"/><path transform="matrix(.13333 0 0 -.13333 0 533)" d="m3951 2702-22 2c-2 0-4 2-4 4 1 2 2 3 4 3l22-1c2-1 4-2 3-5 0-1-1-3-3-3m-139-34c5-2 12-4 17-1 6 3 10 9 12 13zm10-10c-10 0-20 8-20 8-1 1-2 2-1 4l2 2 43 18a4 4 0 0 0 5-4c0-1-4-17-18-25-3-3-7-3-11-3m12 78c-2 0-4 2-4 4l1 21c0 2 2 4 4 3 2 0 4-1 4-4l-1-21c-1-2-2-3-4-3m-63 0c-2 0-4 2-4 4l2 21c0 3 2 4 4 4s3-2 3-4l-1-21c0-2-2-4-4-4m80 41-4 2c-5 10-19 6-19 6-2-1-4 0-5 2s1 4 2 5c1 0 20 6 29-9a4 4 0 0 0-3-6"/><path transform="matrix(.13333 0 0 -.13333 0 533)" d="m3978 2309s-38 110-69 109c-32-1 3-92 3-92l-88 23s-100 16-118 6c-18-11 17-38 17-38s-71 13-58-20c14-32 63-46 63-46s-70 16-50-21c10-21 167-94 266-80 100 14 63 116 63 116l-29 43" style="fill:#f98875"/><path transform="matrix(.13333 0 0 -.13333 0 533)" d="m3763 2784-3 1c-2 2-2 4 0 6 0 0 9 9 19 8 5 0 9-2 13-7a4 4 0 1 0-6-4c-2 2-5 4-8 4-6 0-13-7-13-7l-2-1m147-40s5-20-20-2c-25 19-26 47-39 81s-40 56-60 33l-20-23s-71 68-32 81 79-7 79-7 58 36 119-15c71-59 48-97 48-97s17-22 12-39c-5-18-24-26-24-26s-17 34-63 14"/><path transform="matrix(.13333 0 0 -.13333 0 533)" d="m4009 2559s386-130 404-367c16-207-184-210-325-150-142 59-201 105-201 105l81 225 95-42-54 229" style="fill:#ffae43"/><path transform="matrix(.13333 0 0 -.13333 0 533)" d="m3829 2526c-11 0-23 2-35 6a4 4 0 1 0 3 7c59-23 117 30 117 30 2 2 4 2 6 0v-5c-2-2-42-38-91-38m421-279-3 1c-40 40-184 78-185 79-2 0-3 2-3 4 1 2 3 3 5 3 6-2 146-40 188-80a4 4 0 0 0-2-7" style="fill:#fff"/><path transform="matrix(.13333 0 0 -.13333 0 533)" d="m4154 2309c33-14 79-28 90-19 2 3 2 7 0 13-6 16-55 13-90 6zm77-29c-30 0-84 24-91 27a4 4 0 0 0 1 7c10 2 98 21 110-8 3-10 3-17-2-21-4-4-10-5-18-5" style="fill:#fff"/><path transform="matrix(.13333 0 0 -.13333 0 533)" d="m3804 2297-82 16a4 4 0 1 0 2 7l81-15c2-1 3-3 3-5s-2-3-4-3m-6-62-71 12a4 4 0 1 0 1 8l71-13a4 4 0 0 0-1-7"/><path transform="matrix(.13333 0 0 -.13333 0 533)" d="m7417 2138s103 56 170 122c117 112 140 280 212 295 72 16-51-561-51-561l-331-41v185" style="fill:#ea573f"/><path transform="matrix(.13333 0 0 -.13333 0 533)" d="m6749 2879s70 44 141-10c72-54 19-125 72-155 53-31 104-66 99-122-4-55-108-161-63-132 70 44 179-54 154-122-25-69-479 82-479 82s-77 121-43 179c35 59 125 177 119 280"/><path transform="matrix(.13333 0 0 -.13333 0 533)" d="m6600 2491s-21 72 6 119c33 56 89 66 87 103-5 88 57 132 57 132l20-346-170-8"/><path transform="matrix(.13333 0 0 -.13333 0 533)" d="m6132 2409s120-65 245-46 250 178 283 192-8-358-8-358-89-76-234-87a336 336 0 0 0-233 72l-53 227" style="fill:#fdc300"/><path transform="matrix(.13333 0 0 -.13333 0 533)" d="M797 881s70-98 72-117c3-19-50-54-50-54l128-159H663l-14 308 148 22" style="fill:#d14233"/><path transform="matrix(.13333 0 0 -.13333 0 533)" d="m6586 742s-138-107-149-118-78-20-111-46c-33-25-53-103-44-109 9-7 415-8 424 0 9 7 0 108 34 101 34-8 18-101 18-101h105s14 168-60 278-217-5-217-5" style="fill:#fdc300"/><path transform="matrix(.13333 0 0 -.13333 0 533)" d="m6799 941-210 6-3-205-70-69s100-49 178-27c44 13 73 27 90 37 11 7 18 20 18 33l-3 225" style="fill:#f98875"/><path transform="matrix(.13333 0 0 -.13333 0 533)" d="m6926 2823s-5-73 48-90c41-13 78-17 99-73 22-54-12-91 32-122 43-31 78 5 122-52 47-61-7-150-50-155s-186 155-186 155l-130 291 65 46"/><path transform="matrix(.13333 0 0 -.13333 0 533)" d="m6568 2088s-116-315-107-651c7-273 34-528 41-543 7-14 399-19 399-19l-194 1193-139 20" style="fill:#1c9492"/><path transform="matrix(.13333 0 0 -.13333 0 533)" d="m7030 747s-104-140-112-154-69-40-94-73-24-114-14-118c11-4 402 104 409 114 7 9-29 104 6 106 35 3 44-92 44-92l101 28s-31 166-132 252-208-63-208-63" style="fill:#fdc300"/><path transform="matrix(.13333 0 0 -.13333 0 533)" d="m7191 832-107 177-203-54 133-233-66-101s152 3 211 66c38 40 44 74 44 102 0 15-4 30-12 43" style="fill:#f98875"/><path transform="matrix(.13333 0 0 -.13333 0 533)" d="m6976 2088s85-136 73-332c-11-197-29-266-29-266s232-483 228-495c-5-12-343-130-366-120-22 10-238 574-250 609-11 36 21 584 21 584l323 20" style="fill:#1c9492"/><path transform="matrix(.13333 0 0 -.13333 0 533)" d="m6848 2577s159-61 179-155c20-93-68-332-104-345-37-13-302-31-328-9-27 23-9 169-14 202-4 34-30 148 6 203 37 55 70 90 106 96 37 6 155 8 155 8" style="fill:#fdc300"/><path transform="matrix(.13333 0 0 -.13333 0 533)" d="m6865 2649 3-92s-16-27-70-33c-40-4-54 5-54 5l4 46 5 46 112 28" style="fill:#f98875"/><path transform="matrix(.13333 0 0 -.13333 0 533)" d="m6849 2645-2-9c-20-47-76-58-99-61l5 46 96 24"/><path transform="matrix(.13333 0 0 -.13333 0 533)" d="m6727 2829s-45-116-25-179c21-64 79-51 114-37 34 13 49 36 49 36s33-10 54 21 6 66-13 73-41-7-41-7l16 34s-80 165-154 59" style="fill:#f98875"/><path transform="matrix(.13333 0 0 -.13333 0 533)" d="m6735 2692c2 0 4 2 4 4-5 37 10 52 10 52a4 4 0 0 1-5 6c-1-1-18-18-13-59 0-2 2-3 4-3m136-9 3 1 34 34a4 4 0 0 1-6 6l-34-35a4 4 0 0 1 3-6"/><path transform="matrix(.13333 0 0 -.13333 0 533)" d="m6909 2687c1 0 3 1 3 3 1 2 0 4-2 5l-23 10a4 4 0 0 1-3-8l23-10h2m-44 49s-48-13-85 40-35 76-35 76l-31-58s-10 38 5 64c14 26 30 21 30 21l110-21 33-85-27-37"/><path transform="matrix(.13333 0 0 -.13333 0 533)" d="m6783 2733 3 3 4 20-1 3-8 11c-2 2-4 2-6 1-1-1-2-4 0-5l7-10-3-18a4 4 0 0 1 4-5m-67 5c2 0 3 1 4 3l4 20-1 3-10 14a4 4 0 1 1-6-5l9-12-4-18a4 4 0 0 1 4-5m-7 49 18 2a4 4 0 0 1-1 8l-18-2a4 4 0 0 1 1-8m74-8a4 4 0 0 1 1 8l-21 8c-2 0-4-1-5-3s0-4 2-5l21-8h2m-31-105h3c3 0 11-2 16 1s6 8 6 8a4 4 0 0 0 8-2s-2-8-10-13-21-1-22-1c-3 0-4 3-3 5l2 2"/><path transform="matrix(.13333 0 0 -.13333 0 533)" d="m6867 2569s285-12 399-347c65-193-263-185-263-185s14 86-57 109c-70 23-102-5-102-5l155 176-132 252" style="fill:#fdc300"/><path transform="matrix(.13333 0 0 -.13333 0 533)" d="m6887 2210 3 1c63 77 190 88 191 89 2 0 4 2 3 4 0 2-1 3-4 3-5 0-131-12-195-91a4 4 0 0 1 2-6" style="fill:#ea573f"/><path transform="matrix(.13333 0 0 -.13333 0 533)" d="m6997 2328c-8-7-12-27-13-41 15 15 30 34 28 41 0 0 0 2-5 3h-1l-9-3zm-18-53c-2 0-3 2-3 3 0 2 0 43 17 56 4 4 10 5 16 4 7-1 10-5 11-8 4-16-30-48-37-55a4 4 0 0 0-4 0" style="fill:#ea573f"/><path transform="matrix(.13333 0 0 -.13333 0 533)" d="m6871 904-4 2-163 323a4 4 0 1 0 7 4l163-323a4 4 0 0 0-3-6" style="fill:#ffae43"/><path transform="matrix(.13333 0 0 -.13333 0 533)" d="m5876 2644s-153-67-140-101c13-33 105-64 169-4s-22 60-22 60l-7 45m-4418-1968 50 74-174 119-76-67 116-138 84 12m338 62-2-128 224 2-10 138-212-12" style="fill:#f98875"/><path transform="matrix(.13333 0 0 -.13333 0 533)" d="m1488 424c-5 1-8 6-7 11 4 25 18 93 56 122 47 36 146 50 181 74 36 24 76 81 97 70 22-10 62-60 120-53s85 21 101 7c15-14 24-215 17-226-6-12-88-1-95-3s-27 45-41 38c-13-7-30-29-49-40-19-9-322-8-380 0"/><path transform="matrix(.13333 0 0 -.13333 0 533)" d="m1651 1458 28 545 351 2s42-140 54-276 43-998 38-1010c-4-12-393-26-416-12-24 14-55 751-55 751" style="fill:#ea573f"/><path transform="matrix(.13333 0 0 -.13333 0 533)" d="m895 800c-4 3-4 9-1 13 18 18 68 66 116 69 60 3 150-41 193-42 43 0 109 25 121 4s17-86 70-112c52-27 83-31 88-51 5-21-100-192-112-198s-75 49-82 52c-7 2 3 53-12 55-15 1-41-8-64-5-21 2-273 175-317 215"/><path transform="matrix(.13333 0 0 -.13333 0 533)" d="m795 2640s83-119 228-204c105-61 321-75 321-75l37-132s-284-150-516-25c-233 125-70 436-70 436" style="fill:#ef7565"/><path transform="matrix(.13333 0 0 -.13333 0 533)" d="m611 2976s-109 51-157-39c-48-86 22-166 22-166l120 124 15 81"/><path transform="matrix(.13333 0 0 -.13333 0 533)" d="m702 586-214 5 5 247 215-5-6-247" style="fill:#f98875"/><path transform="matrix(.13333 0 0 -.13333 0 533)" d="m471 1989s-39-140-42-415c-2-237-45-764-28-789 18-25 383-11 397-4s18 172 18 172 243 407 275 475-179 659-179 659l-441-98" style="fill:#fdc300"/><path transform="matrix(.13333 0 0 -.13333 0 533)" d="m555 2658s-171-62-193-158c-21-96 129-479 168-492s354 56 382 79c29 24-3 261-10 294-8 33-36 165-75 221-40 56-72 60-111 60l-161-4" style="fill:#ea573f"/><path transform="matrix(.13333 0 0 -.13333 0 533)" d="m473 2952s-120 31-167-138c-47-168 71-218 128-183 58 36 49 135 49 135l-10 186"/><path transform="matrix(.13333 0 0 -.13333 0 533)" d="M1617 2008S1205 924 1210 900s319-193 338-193 158 246 158 246l16 1052-105 3" style="fill:#ea573f"/><path transform="matrix(.13333 0 0 -.13333 0 533)" d="m1298 2851s-50 119-55 200c-4 81 12 110 24 112s26-48 26-48-2 77 24 81c26 5 36-62 36-62s10 55 31 46c21-10 29-134 29-134s16 62 33 55 28-98 17-131c-12-33-43-74-43-74l-122-45" style="fill:#f98875"/><path transform="matrix(.13333 0 0 -.13333 0 533)" d="m1723 2553s-101 50-153 107c-53 58-76 286-76 286l-243-90s0-310 114-467 295-195 295-195l63 359" style="fill:#1c9492"/><path transform="matrix(.13333 0 0 -.13333 0 533)" d="m1693 2551s-16 66 72 99c94 35 241 35 289-40 43-67-29-103-29-103s22-411 22-461-15-64-34-66c-20-2-91-29-222-25-130 3-178 34-189 44-11 11-4 58 2 59 5 2 5 9 5 9s-23 192 84 484" style="fill:#1c9492"/><path transform="matrix(.13333 0 0 -.13333 0 533)" d="M5717 657h-180v120h180V657" style="fill:#f98875"/><path transform="matrix(.13333 0 0 -.13333 0 533)" d="m1616 850h-2l-220 101a4 4 0 1 0 4 8l219-101a4 4 0 0 0-1-8"/><path transform="matrix(.13333 0 0 -.13333 0 533)" d="M1902 2133s-122-34-92-60c31-25 101-2 101-2l-9 62M6027 667h-193v120h193V667" style="fill:#f98875"/><path transform="matrix(.13333 0 0 -.13333 0 533)" d="m1616 2238c-3 0-5 2-4 4 6 69 41 199 41 200 1 2 3 3 5 3 2-1 3-3 3-5s-35-130-41-199c-1-2-2-3-4-3" style="fill:#fff"/><path transform="matrix(.13333 0 0 -.13333 0 533)" d="m5561 2017s-64-357-87-740c-23-384 0-527 0-527s297-17 310 0 27 183 27 183-14-186 0-186c13 0 263-7 266 10 4 16 107 500 124 656 16 157-197 620-197 620l-443-16" style="fill:#fdc300"/><path transform="matrix(.13333 0 0 -.13333 0 533)" d="m4949 646v109l205 8 8-152-102-26-111 61" style="fill:#f98875"/><path transform="matrix(.13333 0 0 -.13333 0 533)" d="m5165 2063s113-344 105-711c-8-299-34-578-40-593-7-16-389-11-389-11l189 1293 135 22" style="fill:#ffae43"/><path transform="matrix(.13333 0 0 -.13333 0 533)" d="m4538 741 38 80 198-64-53-127-107 13-76 98" style="fill:#f98875"/><path transform="matrix(.13333 0 0 -.13333 0 533)" d="m5810 856c-2 1-4 3-3 5l62 561c0 2 2 3 4 3s3-2 3-4l-62-561c0-2-2-4-4-4" style="fill:#ea573f"/><path transform="matrix(.13333 0 0 -.13333 0 533)" d="m4767 2063s-82-153-71-375 29-300 29-300-227-547-222-560c4-14 315-142 338-131 22 11 251 644 262 684s-20 660-20 660l-316 22" style="fill:#ffae43"/><path transform="matrix(.13333 0 0 -.13333 0 533)" d="m4876 746-1 1c-2 1-3 3-2 5 2 3 173 357 192 429 0 2 2 3 4 3 2-1 4-3 3-5a5589 5589 0 0 0-196-433" style="fill:#1c9492"/><path transform="matrix(.13333 0 0 -.13333 0 533)" d="m4857 2767s-141-53-135-198c6-146 277-144 277-144s158-6 194 99-107 160-107 160-178 123-229 83"/><path transform="matrix(.13333 0 0 -.13333 0 533)" d="m5114 2543s87-12 137-37c50-26 227-34 327 21 100 54-76-243-76-243s-198-84-317-15-71 274-71 274" style="fill:#1c9492"/><path transform="matrix(.13333 0 0 -.13333 0 533)" d="m5299 2081s13 226 160 360 237 143 237 143l93 9s103 17 292-104c190-121 246-406 246-406l-313-60-453-6-262 64" style="fill:#ea573f"/><path transform="matrix(.13333 0 0 -.13333 0 533)" d="m5686 2573s-15-221-4-399c11-177 29-231 29-231s44-14 81-13c36 1 66 13 66 13s5 124-7 274c-13 150-50 379-50 379l-115-23" style="fill:#c5ede9"/><path transform="matrix(.13333 0 0 -.13333 0 533)" d="m5686 2641v-68s26-22 59-22c44 0 59 35 59 35l-2 79-116-24" style="fill:#f98875"/><path transform="matrix(.13333 0 0 -.13333 0 533)" d="m5686 2641s28-48 68-39c40 8 44 55 44 55l-112-16"/><path transform="matrix(.13333 0 0 -.13333 0 533)" d="m5819 2838s26-121-13-180c-38-59-90-42-113-25-31 23-38 56-38 56s-43-9-58 25c-15 37 11 66 32 69 21 2 24-2 24-2l-7 39s127 146 173 18" style="fill:#f98875"/><path transform="matrix(.13333 0 0 -.13333 0 533)" d="m5576 2057c-3 0-4 2-4 4 0 1 1 78-38 131-38 53-110 68-110 68a4 4 0 0 0 1 7c3-1 75-15 115-70s39-133 39-136c0-2-1-4-3-4" style="fill:#ffae43"/><path transform="matrix(.13333 0 0 -.13333 0 533)" d="m5502 2281c-8 0-10-3-10-4-5-12 20-48 41-72-1 18-4 56-19 70-3 4-7 6-12 6zm35-90-3 1c-6 7-59 65-49 88 2 5 8 8 17 8 7 0 13-2 18-8 21-21 21-83 21-86a4 4 0 0 0-4-3m531-98c-2 0-3 2-3 4-1 3-2 80 39 135 40 55 112 70 115 71 2 0 4-1 4-3s-1-4-3-5c-1 0-72-15-110-67-39-53-38-130-38-131 0-2-2-4-4-4" style="fill:#ffae43"/><path transform="matrix(.13333 0 0 -.13333 0 533)" d="m6142 2316c-5 0-9-2-12-5-15-15-18-53-19-71 21 24 46 60 41 72 0 1-2 4-10 4zm-35-90-2 1c-1 0-2 1-2 3 0 3 0 64 21 86 5 5 11 8 18 8 9 0 14-3 17-9 10-22-43-81-50-88l-2-1" style="fill:#ffae43"/><path transform="matrix(.13333 0 0 -.13333 0 533)" d="m4841 2547s-238-93-298-295c-57-191 229-209 229-209s-14 85 55 107 100-4 100-4l-151 171 65 230" style="fill:#1c9492"/><path transform="matrix(.13333 0 0 -.13333 0 533)" d="m5482 2136s116-24 90-49c-27-26-94-9-94-9l4 58m706 5s-115-32-87-55c29-24 94-2 94-2l-7 57m-1239 497 8-87s19-24 70-23c38 1 51 11 51 11l-10 44-9 42-94 11-16 2" style="fill:#f98875"/><path transform="matrix(.13333 0 0 -.13333 0 533)" d="m4965 2636 3-8c24-41 78-46 100-45l-9 42-94 11"/><path transform="matrix(.13333 0 0 -.13333 0 533)" d="m5059 2826s57-105 44-167c-12-63-68-58-103-49-34 9-51 28-51 28s-31-13-54 15c-23 27-13 61 4 70s40-2 40-2l-20 31s57 166 140 74" style="fill:#f98875"/><path transform="matrix(.13333 0 0 -.13333 0 533)" d="m5068 2687c-2 0-3 2-3 4 0 36-18 56-18 56a4 4 0 0 0 6 5c0-1 19-22 19-61 0-2-2-4-4-4m-26-30c-8 0-19 3-27 15-1 1-1 4 1 5s4 1 5-1c10-16 27-11 28-11 2 1 4 0 4-2 1-2 0-4-2-5l-9-1m-103 13-2 1-37 29a4 4 0 1 0 5 5l36-28c2-2 2-4 1-6l-3-1"/><path transform="matrix(.13333 0 0 -.13333 0 533)" d="m4903 2670a4 4 0 0 0-2 7l21 12a4 4 0 1 0 4-6l-21-13h-2m786 65c-2 0-3 2-3 4l-2 20c-1 3 1 4 3 5 2 0 4-2 4-4l2-21c0-2-1-4-3-4h-1m71 8c-2 0-4 1-4 3l-2 21c0 2 1 4 3 4s4-1 4-3l2-21a4 4 0 0 0-3-4m-828-21s49 8 75 53c26 44 20 56 20 56l34-28c11-9 19-21 25-35l4-11s16-20 22 53-125 122-206 86-49-129-49-129l75-45"/><path transform="matrix(.13333 0 0 -.13333 0 533)" d="m522 2728 9-94s20-25 75-24c41 1 54 11 54 11l-10 47-10 45-101 13-17 2" style="fill:#f98875"/><path transform="matrix(.13333 0 0 -.13333 0 533)" d="m539 2726c0-3 2-6 4-9 25-45 83-49 107-49l-10 45-101 13"/><path transform="matrix(.13333 0 0 -.13333 0 533)" d="m640 2928s60-112 47-179-73-61-110-52c-37 10-55 31-55 31s-32-15-57 15c-25 29-14 65 4 75 19 10 42-2 42-2l-20 32s60 179 149 80" style="fill:#f98875"/><path transform="matrix(.13333 0 0 -.13333 0 533)" d="m649 2788c-3 0-4 2-4 4 0 38-17 51-17 51-2 1-3 4-1 6 1 1 4 2 5 0 1 0 21-15 21-57 0-2-2-4-4-4m-27-41c-9 0-21 4-29 16a4 4 0 1 0 6 5c11-17 29-12 30-12 2 1 4 0 5-2 0-3-1-5-3-5l-9-2m-110 14-3 1-39 31a4 4 0 0 0 5 6l39-31a4 4 0 0 0-2-7"/><path transform="matrix(.13333 0 0 -.13333 0 533)" d="m473 2761a4 4 0 0 0-2 8l22 13c2 1 5 0 6-2s0-4-2-5l-22-13-2-1"/><path transform="matrix(.13333 0 0 -.13333 0 533)" d="m7989 461c0-4-4-8-8-8l-510-41c-5-1-9 3-9 7l-4 47c0 4 3 8 7 8a8 8 0 0 1 7 9c-2 14-3 43 13 68 22 34 137 71 188 94 33 15 50 54 57 79 5 14 17 24 32 25 58 2 194 8 203 6 11-2 24-104 20-144s-13-87-13-87l14 3 3-66" style="fill:#ea573f"/><path transform="matrix(.13333 0 0 -.13333 0 533)" d="m7989 461c0-4-4-8-8-8l-510-41c-5-1-9 3-9 7l-4 47c0 4 3 8 7 8 3 1 5 3 6 5 144 10 501 45 501 45l14 3 3-66" style="fill:#ffae43"/><path transform="matrix(.13333 0 0 -.13333 0 533)" d="m7682 652c-2 0-3 2-4 3 0 2 1 4 3 5l55 14c2 0 4-1 5-3 0-2-1-4-3-4l-55-14-1-1m18-28-80 1a4 4 0 0 0 0 7l80-1a4 4 0 0 0 0-7" style="fill:#fff"/><path transform="matrix(.13333 0 0 -.13333 0 533)" d="m8762 814c4-3 4-8 1-11l-345-379c-3-3-8-3-11 0l-35 31v1c-3 3-3 7-1 10a8 8 0 0 1-1 11c-10 9-31 30-37 59-7 40 52 146 74 197 14 33-1 73-13 97-6 13-4 29 6 40 41 41 137 138 144 143 10 6 89-60 113-92 25-32 51-72 51-72l8 11 46-46" style="fill:#ea573f"/><path transform="matrix(.13333 0 0 -.13333 0 533)" d="m8762 814c4-3 4-8 1-11l-345-379c-3-3-8-3-11 0l-35 31v1c-3 3-3 7-1 10s2 5 2 8c98 105 335 375 335 375l8 11 46-46" style="fill:#ffae43"/><path transform="matrix(.13333 0 0 -.13333 0 533)" d="m5214 2243s-11-42-11-51-11-111-18-129c-7-17-69-69-200-60s-216 25-236 47 7 427 40 467c34 40 123 42 123 42s-7 22 11 31 80-20 113-22 47 9 60 6c13-2 18-31 18-31s45-29 83-122 17-178 17-178" style="fill:#1c9492"/><path transform="matrix(.13333 0 0 -.13333 0 533)" d="m8405 743-2 1c-1 1-2 3-1 5l31 48c1 2 3 2 5 1s2-3 1-5l-30-48-4-2m-26-62-3 1v6l60 53c1 2 4 2 5 0v-5l-60-54-2-1" style="fill:#fff"/><path transform="matrix(.13333 0 0 -.13333 0 533)" d="m7734 1917s-135-344-172-579c-36-235 90-616 90-616l390 5s-73 378-86 493c-10 127 60 675 60 675l-282 22" style="fill:#1c9492"/><path transform="matrix(.13333 0 0 -.13333 0 533)" d="m8187 1923s74-306 220-563c147-257 217-330 217-330l-287-280s-370 403-413 663-40 494-40 494l303 16" style="fill:#1c9492"/><path transform="matrix(.13333 0 0 -.13333 0 533)" d="m7911 2573s-54 2-112-18c-93-30-63-330-63-330s-30-300-24-312c7-11 146-41 281-35 134 7 219 30 226 35s-13 625-13 630-151 38-295 30" style="fill:#ea573f"/><path transform="matrix(.13333 0 0 -.13333 0 533)" d="m8041 2650-10-95s-19-25-75-24c-41 1-55 11-55 11l11 47 10 46 102 13 17 2" style="fill:#f98875"/><path transform="matrix(.13333 0 0 -.13333 0 533)" d="m8024 2648-4-9c-26-45-84-50-108-50l10 46 102 13"/><path transform="matrix(.13333 0 0 -.13333 0 533)" d="m7922 2852s-61-113-48-181c13-67 74-62 111-52s56 31 56 31 32-15 57 15c26 29 15 66-4 76-18 10-42-2-42-2l20 33s-61 179-150 80" style="fill:#f98875"/><path transform="matrix(.13333 0 0 -.13333 0 533)" d="m7914 2702c-2 0-4 2-4 4 0 41 18 65 19 66s3 2 5 0c2-1 2-3 1-5 0 0-17-22-17-61 0-2-2-4-4-4m40-1400-4 2c-58 142-76 302-77 322l-137 83a4 4 0 0 0 4 6l138-84 2-3c0-2 16-172 77-321a4 4 0 0 0-3-5"/><path transform="matrix(.13333 0 0 -.13333 0 533)" d="m7932 733c-2 0-4 1-4 3-1 4-97 424-31 741 0 2 2 4 4 3 2 0 4-2 3-4-66-316 30-734 31-738a4 4 0 0 0-3-5m8 1937-9 1c-2 1-3 3-3 5 1 2 3 3 5 2 1 0 19-5 30 12a4 4 0 1 0 6-4c-8-13-20-16-29-16m53 83-3 1c-4 5-7 8-10 8-5 0-9-6-11-8a4 4 0 0 0-6 4c0 1 7 11 17 11 6 0 11-3 16-11a4 4 0 0 0-3-5m-81 5c-2 0-4 1-4 3 0 3-1 10-4 11-2 2-6 0-11-4-2-1-4-1-5 1-2 2-1 4 0 5 8 6 15 8 20 5 8-4 8-16 8-18s-2-3-4-3m140-19s-46 12-59 52c-14 39 0 62 0 62s-17 13-44 6-41-35-41-35-61 57-36 97c25 41 71 0 71 0s-3 43 64 30 67-98 67-98 26 24 46-33c19-57-18-85-18-85s-17 11-50 4m-1-55-3 1c-1 2-1 4 1 6l39 31a4 4 0 0 0 5-6l-40-31-2-1"/><path transform="matrix(.13333 0 0 -.13333 0 533)" d="m8090 2684-2 1-22 13c-2 1-3 3-2 5 1 1 4 2 5 1l23-13a4 4 0 0 0-2-7"/><path transform="matrix(.13333 0 0 -.13333 0 533)" d="m1942 2687-11-89s-21-24-77-22c-42 1-55 12-55 12l11 44 11 43 103 10 18 2" style="fill:#f98875"/><path transform="matrix(.13333 0 0 -.13333 0 533)" d="m1924 2685-3-9c-27-45-87-48-111-48l11 46 103 11"/><path transform="matrix(.13333 0 0 -.13333 0 533)" d="m1825 2894s-63-114-51-182c12-69 73-64 111-55s57 30 57 30 32-15 58 14 16 67-3 77c-18 11-43-1-43-1l22 33s-59 182-151 84" style="fill:#f98875"/><path transform="matrix(.13333 0 0 -.13333 0 533)" d="m1813 2745c-2 0-4 2-4 4 1 43 21 63 22 64h6c1-2 1-5-1-6 0 0-18-19-19-58 0-2-2-4-4-4m140-24a4 4 0 0 0-3 7l41 31a4 4 0 1 0 4-6l-40-31-2-1"/><path transform="matrix(.13333 0 0 -.13333 0 533)" d="m1992 2720-2 1-22 14a4 4 0 0 0 4 6l23-13a4 4 0 0 0-3-8"/><path transform="matrix(.13333 0 0 -.13333 0 533)" d="m7959 2523c-44 0-71 14-72 15-2 1-3 3-2 5 1 1 3 2 5 1 0 0 32-16 80-13s67 32 68 32c1 2 3 2 5 1 1-1 2-3 1-5-1-1-22-33-73-36h-12" style="fill:#fff"/><path transform="matrix(.13333 0 0 -.13333 0 533)" d="m1991 2543s211 10 315-279c61-172-122-251-203-256s-176 9-176 9-95 386 64 526" style="fill:#1c9492"/><path transform="matrix(.13333 0 0 -.13333 0 533)" d="M7979 977H580v1120h7399V977" style="fill:#fff"/><path transform="matrix(.13333 0 0 -.13333 0 533)" d="m8043 2143-20-4c-34-9-148-41-162-54-15-15-40-106-34-139 7-33 28-34 28-34s8-17 25-19c17-1 32 9 32 9s26-14 45-9 34 39 29 49-25-4-25-4l8 30s47-5 72 10 26 40 26 40h39l-5 134-58-9" style="fill:#f98875"/><path transform="matrix(.13333 0 0 -.13333 0 533)" d="m8206 2543s268-183 261-446c-6-264-391-150-391-150v243l130 353" style="fill:#ea573f"/><path transform="matrix(.13333 0 0 -.13333 0 533)" d="m8323 2240-11-1c-25-6-49-21-63-30l62 5c16 1 25 7 27 13 1 3 1 6-1 8-2 3-7 5-14 5zm-247-54a4 4 0 0 0-1 8l161 13c9 8 39 31 75 39 14 3 26 1 32-6 4-5 4-10 2-16-4-10-17-16-33-18a15586 15586 0 0 1-236-20" style="fill:#fff"/><path transform="matrix(.13333 0 0 -.13333 0 533)" d="m7855 1908c-2 0-3 1-3 3-3 13-5 64 8 100 1 2 3 3 5 3 2-1 3-3 2-5-13-35-11-84-8-96a4 4 0 0 0-4-5m51-8-4 2c-1 2-12 40 7 102a4 4 0 0 0 7-2c-18-59-7-97-7-98a4 4 0 0 0-3-4m40 21-2 1c-2 1-3 3-2 5l22 35a4 4 0 0 0 6-4l-21-35-3-2"/><path transform="matrix(.13333 0 0 -.13333 0 533)" d="m7967 1956h-1l-20 7c-2 1-3 3-2 5 0 2 2 3 4 2l20-6c2-1 3-3 3-5-1-2-2-3-4-3m186-157c-64 0-80 54-81 54a4 4 0 0 0 8 2c0-2 20-67 108-44 2 1 4 0 5-2s-1-4-3-5c-14-3-26-5-37-5"/><path transform="matrix(.13333 0 0 -.13333 0 533)" d="m8561 971-3 1c-4 3-324 362-419 831 0 2 1 4 3 4s4-1 4-3c95-467 414-823 417-827a4 4 0 0 0-2-6"/><path transform="matrix(.13333 0 0 -.13333 0 533)" d="m4873 2197c31-6 41-26 54-56 7-16 29-36 29-53 0-40-35-97-51-106-15-9-29 0-29 0s-24-20-37-16c-14 5-20 14-20 14s-25-20-40-12c-16 9-38 60-23 69 16 9 29-9 29-9l-9 23c-10 28-13 59-5 87 10 36 36 72 102 59m1041 407s-8 60-36 41c-27-19-38-128-5-138 33-11 41 97 41 97" style="fill:#f98875"/><path transform="matrix(.13333 0 0 -.13333 0 533)" d="m5963 2599s-8 60-35 41-38-128-5-139c32-11 40 98 40 98" style="fill:#f98875"/><path transform="matrix(.13333 0 0 -.13333 0 533)" d="m6010 2580s2 53-25 41c-27-13-52-106-26-120 27-14 51 79 51 79m230-448s-9 68-40 46-43-145-6-157 46 111 46 111" style="fill:#f98875"/><path transform="matrix(.13333 0 0 -.13333 0 533)" d="m6296 2126s-9 67-40 46c-30-22-43-145-6-157 37-13 46 111 46 111" style="fill:#f98875"/><path transform="matrix(.13333 0 0 -.13333 0 533)" d="m6349 2104s2 61-28 47c-30-15-59-120-29-137 30-16 57 90 57 90m-924 32s9 68 40 46c30-21 43-144 6-157-37-12-46 111-46 111" style="fill:#f98875"/><path transform="matrix(.13333 0 0 -.13333 0 533)" d="m5368 2130s10 68 40 46c31-21 43-145 6-157-36-12-46 111-46 111" style="fill:#f98875"/><path transform="matrix(.13333 0 0 -.13333 0 533)" d="m5316 2109s-2 60 28 46 59-120 29-136c-31-16-57 90-57 90m492 671s64 29 70-21c7-58-62-59-62-59l-8 80" style="fill:#f98875"/><path transform="matrix(.13333 0 0 -.13333 0 533)" d="m5730 2698-3 2c-14 16-7 51-7 52 0 2 2 4 4 3 3 0 4-2 3-4 0-1-6-33 6-47a4 4 0 0 0-3-6m10-22c6-3 11-5 12-4 2 1 5 8 7 14l-3-2-16-8zm12-12c-8 0-18 7-23 11-1 1-2 2-1 4 0 1 1 3 3 3 0 0 10 1 20 8l10 7 5 2 3-3c1-3-6-27-13-31l-4-1m87 61-2 1c-2 0-3 2-2 4l14 47a4 4 0 1 0 7-2l-14-47-3-3"/><path transform="matrix(.13333 0 0 -.13333 0 533)" d="m5864 2745-18 2a4 4 0 0 0 1 7l18-2a4 4 0 0 0-1-7m-219-31-4 2-18 45c-1 2 0 4 2 5s4 0 5-2l18-45a4 4 0 0 0-3-5"/><path transform="matrix(.13333 0 0 -.13333 0 533)" d="m5617 2731a4 4 0 0 0-1 7l18 4c2 0 4-1 5-3 0-2-1-4-3-5l-18-3h-1m36 50s10-1 15 13c6 15 6 22 6 22s28-22 59-9 40 28 40 28 0-39 14-54c15-15 39 5 39 5s23 29 23 79c1 49-47 79-71 73-24-5-44-39-86-63-41-25-71-14-89-44-18-31 0-64 0-64s18 21 50 14"/><path transform="matrix(.13333 0 0 -.13333 0 533)" d="m5639 2791s11-44 16-44c6-1 7 48 7 48l-23-4m159 0s6-38 13-38c7-1 18 43 18 43l-31-5"/><path transform="matrix(.13333 0 0 -.13333 0 533)" d="m4954 445c-16 1-28 13-28 29-1 63-2 207 10 208 15 0 156-43 156-43s3 87 65 72c47-11 103-65 126-90 7-8 17-13 27-15 44-11 166-44 168-108 4-78-28-69-43-69-13-1-378 12-481 16" style="fill:#efb103"/><path transform="matrix(.13333 0 0 -.13333 0 533)" d="m4463 551c-13 8-17 25-10 39 29 55 86 184 96 178 13-6 125-109 125-109s43 76 90 34c35-32 58-105 66-138 3-10 9-19 16-26 34-29 123-115 95-172-33-70-57-48-70-41-11 5-320 185-408 235" style="fill:#fdc300"/><path transform="matrix(.13333 0 0 -.13333 0 533)" d="m502 442c-16 1-29 15-29 32 0 67 1 222 13 222 16 0 165-47 165-47s4 93 70 76c50-13 109-72 133-98 8-9 18-15 28-17 47-12 176-49 178-117 3-84-31-74-47-74l-511 23" style="fill:#ea573f"/><path transform="matrix(.13333 0 0 -.13333 0 533)" d="m6359 474-1-3c-4-20-15-45-23-53-8-9-86-5-172-8-77-3-331 5-337 14-5 8-8 50-9 61l-1 6s-3 199 13 212c16 12 196 9 212 0 16-10 101-111 126-120 26-10 152-35 181-64 13-13 14-30 11-46m-595-12c0-22-7-48-20-54-13-7-122-21-217-11-91 9-110 17-116 27-4 5 3 30 11 53a781 781 0 0 0 21 50c10 15 29 48 34 65 7 22 17 71 24 94 6 22 33 32 33 32s177 10 190-3 20-120 20-136v-16c0-19 14-61 18-87l2-14" style="fill:#1c9492"/><path transform="matrix(.13333 0 0 -.13333 0 533)" d="m1947 2767s-19 8-33 38c-15 33-11 55-11 55s-37-20-65-10c-44 15-8 43-8 43l-35-63s-11 13-10 30c2 16 18 26 18 26s-5 47 33 60 70-27 70-27-7 45 43 28c49-16 49-90 49-90s33-12 45-37-31-59-31-59-7 38-65 6m-589 154c-2 0-4 1-4 3-8 76 54 124 56 126a4 4 0 0 0 5-7c-1 0-60-47-53-118 0-2-2-4-4-4m-79 102a4 4 0 0 0-1 8l117 36c2 1 4-1 5-3 0-2-1-4-3-5l-117-36h-1"/><path transform="matrix(.13333 0 0 -.13333 0 533)" d="m1858 2785c-3 0-4 2-3 4l4 21a4 4 0 1 0 8-2l-5-20c0-2-2-3-4-3m-57 6h-1c-2 0-4 2-3 5l5 20c1 2 3 3 5 3 2-1 3-3 3-5l-5-20c-1-2-2-3-4-3m-1290 25s51-6 82 52 26 81 26 81l39-55s4 40-13 65c-18 24-34 17-34 17l-109-35-22-91 31-34"/><path transform="matrix(.13333 0 0 -.13333 0 533)" d="m379 2538s-149-144-64-465c68-255 308-181 422-145a656 656 0 0 1 215 129l-25 135s-240-50-354-39-194 385-194 385" style="fill:#f98875"/><path transform="matrix(.13333 0 0 -.13333 0 533)" d="m900 2187s173 35 217 18c44-18 9-162-4-188s-193 13-193 13l-52 74 32 83" style="fill:#f98875"/><path transform="matrix(.13333 0 0 -.13333 0 533)" d="m1117 2205s106-72 110-116c4-45-126 48-126 48l16 68m-69-181s-89-21-61-45c29-24 117 15 126 38 8 23-57 51-57 51l-8-44" style="fill:#f98875"/><path transform="matrix(.13333 0 0 -.13333 0 533)" d="m1318 2364s31 59 73 79c41 20 86 28 72 4s-48-59-48-59h66s45 8 76 8 34-24 34-24 31 0 42-12c10-12-4-28-4-28s42-12 18-40c-25-27-121-59-166-67s-139 4-139 4-100 83-24 135" style="fill:#ef7565"/><path transform="matrix(.13333 0 0 -.13333 0 533)" d="m1364 2292c-2 0-3 1-4 3s0 4 2 5c61 27 52 79 52 81-1 2 1 4 3 5 2 0 4-1 5-3a85 85 0 0 0-58-91m187 5-3 1-86 75a4 4 0 1 0 5 6l86-75a4 4 0 0 0-2-7"/><path transform="matrix(.13333 0 0 -.13333 0 533)" d="m823 977c-2 0-4 2-4 4 0 4 7 338 0 448-7 106-4 271 8 287l118 136a4 4 0 0 0 6-5l-118-136c-9-12-14-165-6-282 7-109 0-445 0-448 0-2-2-4-4-4" style="fill:#fff"/><path transform="matrix(.13333 0 0 -.13333 0 533)" d="m7993 2787-3 1-21 18a4 4 0 0 0 4 6l22-18a4 4 0 0 0-2-7m-95 9a4 4 0 0 0-2 7l24 12c2 1 4 1 5-1s1-4-1-5l-24-13h-2m-2129-8-2 1c-13 6-31 5-32 5l-4 4c0 2 2 4 4 4 1 0 21 0 35-7a4 4 0 0 0-1-7m-99-18-2 1c-2 2-2 4 0 6 11 11 31 16 32 16 2 0 4-1 4-3 1-2 0-4-2-4-1 0-19-5-29-15l-3-1m-677-2a4 4 0 0 0-1 7l31 14c1 1 4 1 5-1 0-2 0-4-2-5l-31-15h-2m87 14-2 1-21 11c-2 1-2 3-1 5s3 2 5 1l21-11a4 4 0 0 0-2-7m-3242-66c5-2 11-4 14-2s5 6 5 10zm10-11c-9 0-20 7-22 8a4 4 0 0 0 1 7l33 14a4 4 0 0 0 5-4s2-17-9-23c-2-2-5-2-8-2m3169 24-3 2-7 18 1 3 7 13c1 2 3 2 5 1s2-3 1-5l-6-11 6-16a4 4 0 0 0-4-5m63 12-4 2-6 18 1 4 8 12a4 4 0 0 0 6-4l-7-11 5-16a4 4 0 0 0-3-5m-4485 83c-2 0-3 1-4 3l-6 19v3l8 13c1 2 3 2 5 1s3-3 1-5l-6-11 6-18a4 4 0 0 0-4-5m67 13c-2 0-3 1-4 3l-6 19v3l8 16a4 4 0 0 0 7-4l-7-14 6-18a4 4 0 0 0-4-5m-4 53h-1l-18 3a4 4 0 1 0 1 7l18-2c2-1 4-3 4-5-1-2-2-3-4-3m-66-13-3 1c-1 2-1 5 1 6l18 13c2 1 5 1 6-1s1-4-1-6l-18-13h-3m1291-54-4 2c-3 10-17 7-17 7-3 0-5 1-5 3-1 3 1 5 3 5 7 2 22 1 27-12a4 4 0 0 0-4-5m-82 10h-2c-2 1-3 4-2 6 8 12 22 12 28 9a4 4 0 0 0-3-7c-1 0-12 4-18-6 0-2-2-2-3-2"/><path transform="matrix(.13333 0 0 -.13333 0 533)" d="M798 877H398a4 4 0 0 0 0 8h400a4 4 0 0 0 0-8" style="fill:#fff"/><path transform="matrix(.13333 0 0 -.13333 0 533)" d="m1136 2113-3 2s-21 30-41 44c-2 2-2 4-1 6s4 2 6 1c21-15 42-45 43-46 1-2 1-5-1-6l-3-1m-16-60-3 1-43 52a4 4 0 1 0 6 5l43-52a4 4 0 0 0-3-6m-78-44h-29c-2 0-3 0-4 2v4l15 26c2 2 4 2 6 1s2-3 1-5l-11-20h22a4 4 0 0 0 0-8m-122 17c-2 0-3 1-4 3l-6 27a4 4 0 0 0 7 2l7-27a4 4 0 0 0-4-5"/><path transform="matrix(.13333 0 0 -.13333 0 533)" d="m538 2152c-14-18-33-48-21-62l3-2c6 2 14 33 18 64zm-18-72c-3 0-6 1-9 5-22 26 28 81 30 83l4 1 3-4c-2-19-9-80-26-85h-2" style="fill:#e06258"/><path transform="matrix(.13333 0 0 -.13333 0 533)" d="m1045 2407c-10-23-18-51-14-59l3-2 3 1c7 7 9 36 8 60zm-11-69h-1c-4 1-7 3-9 6-9 17 17 75 20 81 1 2 2 3 4 2 2 0 3-1 4-3 0-7 5-69-10-83-2-2-5-3-8-3" style="fill:#cc504a"/><path transform="matrix(.13333 0 0 -.13333 0 533)" d="m5217 2259c-2 0-4 2-4 4 19 112-48 215-49 216a4 4 0 1 0 6 5c1-1 70-107 51-222 0-2-2-3-4-3m-195 265c-68 0-111 31-113 32a4 4 0 0 0 5 6s45-32 113-30c2 0 4-2 4-4s-2-3-4-4h-5" style="fill:#ffae43"/><path transform="matrix(.13333 0 0 -.13333 0 533)" d="m5797 804h-329a4 4 0 0 0 0 8h329a4 4 0 0 0 0-8m291-1h-254a4 4 0 0 0 0 8h254a4 4 0 0 0 0-8" style="fill:#ea573f"/><path transform="matrix(.13333 0 0 -.13333 0 533)" d="m5740 2547c-48 0-58 33-58 34-1 2 0 4 2 5 2 0 4-1 5-3 0-1 9-28 51-28h1c56 0 63 37 64 37a4 4 0 0 0 7-1s-9-43-71-44h-1" style="fill:#1c9492"/><path transform="matrix(.13333 0 0 -.13333 0 533)" d="m5875 2379c0-11 3-43 21-63 9-10 22-15 37-15 18-1 32 5 42 15 17 20 16 52 15 63zm60-86h-2c-17 1-32 7-42 18-25 26-23 70-23 72s1 3 3 3h123c2 0 3-1 4-3 0-2 5-46-18-72a58 58 0 0 0-45-18m-1022-102-3 1c-55 79-178 99-179 99-2 0-4 2-3 4 0 2 2 3 4 3 5-1 127-20 184-101a4 4 0 0 0-3-6" style="fill:#ffae43"/><path transform="matrix(.13333 0 0 -.13333 0 533)" d="m4806 2316h-2c-4 0-4-2-4-2-3-7 11-27 24-41 0 13-2 33-10 40-2 2-5 3-8 3zm21-56-2 1c-7 6-38 40-32 55 1 3 3 7 10 8 7 0 12-1 16-5 15-15 12-54 12-56a4 4 0 0 0-4-3" style="fill:#ffae43"/><path transform="matrix(.13333 0 0 -.13333 0 533)" d="m6228 2057c-2 1-4 3-3 5l12 70c0 2 2 4 4 3 2 0 3-2 3-4l-12-71c0-1-2-3-4-3m61-6c-2 1-4 2-4 4l8 71c0 2 2 4 4 3 2 0 3-2 3-4l-7-70c0-2-2-4-4-4"/><path transform="matrix(.13333 0 0 -.13333 0 533)" d="m7442 2136s111-40 81-61c-30-22-93 5-93 5l12 56" style="fill:#f98875"/><path transform="matrix(.13333 0 0 -.13333 0 533)" d="m7388 2131s15 67 44 43 32-148-6-157c-38-10-38 114-38 114" style="fill:#f98875"/><path transform="matrix(.13333 0 0 -.13333 0 533)" d="m7332 2129s14 67 43 43 32-148-5-157c-38-10-38 114-38 114" style="fill:#f98875"/><path transform="matrix(.13333 0 0 -.13333 0 533)" d="m7278 2111s2 61 31 44c29-16 50-123 19-137s-50 93-50 93" style="fill:#f98875"/><path transform="matrix(.13333 0 0 -.13333 0 533)" d="m7395 2056c3 0 4 2 4 4l-7 71c0 2-2 4-4 4-2-1-4-2-3-5l6-71c1-2 2-3 4-3m-61-2c2 0 4 2 4 4l-2 71c-1 2-2 4-4 4s-4-2-4-4l2-71c0-2 2-4 4-4m-1897 15c-2 0-3 1-3 3l-11 74c0 2 1 4 3 5 2 0 4-1 4-4l11-74a4 4 0 0 0-4-4m-51-29c-2 0-4 1-4 3l-17 82c0 2 1 4 3 4 2 1 4-1 4-3l17-81a4 4 0 0 0-3-5"/><path transform="matrix(.13333 0 0 -.13333 0 533)" d="m2659 2146s116-23 90-49c-27-25-94-9-94-9l4 58" style="fill:#f98875"/><path transform="matrix(.13333 0 0 -.13333 0 533)" d="m2601 2147s10 68 41 46c30-22 43-145 6-157s-47 111-47 111" style="fill:#f98875"/><path transform="matrix(.13333 0 0 -.13333 0 533)" d="m2545 2141s9 67 40 46c31-22 43-145 6-157-37-13-46 111-46 111" style="fill:#f98875"/><path transform="matrix(.13333 0 0 -.13333 0 533)" d="m2493 2119s-3 61 28 47c30-15 59-120 29-136-31-17-57 89-57 89" style="fill:#f98875"/><path transform="matrix(.13333 0 0 -.13333 0 533)" d="m2614 2079c-2 0-3 2-3 4l-11 74c0 2 1 4 3 4 2 1 4-1 4-3l11-74a4 4 0 0 0-4-5m-52-28c-1 0-3 1-3 3l-17 81a4 4 0 0 0 7 2l17-82a4 4 0 0 0-4-4"/><path transform="matrix(.13333 0 0 -.13333 0 533)" d="m3448 2123s117-23 90-49c-26-25-93-9-93-9l3 58" style="fill:#f98875"/><path transform="matrix(.13333 0 0 -.13333 0 533)" d="m3391 2124s9 67 40 46c31-22 43-145 6-157-37-13-46 111-46 111" style="fill:#f98875"/><path transform="matrix(.13333 0 0 -.13333 0 533)" d="m3335 2117s9 68 40 47c31-22 43-145 6-157-37-13-46 110-46 110" style="fill:#f98875"/><path transform="matrix(.13333 0 0 -.13333 0 533)" d="m3282 2096s-2 60 28 46 60-119 29-136c-30-16-57 90-57 90" style="fill:#f98875"/><path transform="matrix(.13333 0 0 -.13333 0 533)" d="m3404 2056c-2 0-4 1-4 3l-10 75c-1 2 1 4 3 4s4-1 4-3l11-75a4 4 0 0 0-4-4m-52-29c-2 0-3 2-3 3l-17 82c-1 2 1 4 3 5 2 0 4-1 4-3l17-82a4 4 0 0 0-4-5m1444-17c-2 0-3 1-3 2l-11 14a4 4 0 0 0 6 5l11-15a4 4 0 0 0-3-6m23-34-4 2c-1 2 1 5 3 5 1 1 35 13 32 56 0 2 1 3 4 4 2 0 3-2 4-4a60 60 0 0 0-39-63m57 2-2 1c-2 2-2 4 0 6 0 0 20 18 25 59a4 4 0 1 0 7-1c-5-44-26-63-27-64l-3-1m1029 557c-3 0-4 2-4 4l8 71c0 2 2 3 4 3s4-2 4-4l-8-71c-1-1-2-3-4-3m45-11-1 1c-2 0-3 2-3 4l14 63a4 4 0 1 0 7-1l-13-64c-1-1-2-3-4-3"/><path transform="matrix(.13333 0 0 -.13333 0 533)" d="m1866 2578c-21 0-44 2-68 6-2 0-3 2-3 4 0 3 3 4 5 4 101-18 176 10 178 19 2 7-21 22-43 32a4 4 0 0 0 3 7c12-5 51-24 48-40-3-15-53-32-120-32m-81-110a4 4 0 0 0-4 5l25 71a4 4 0 1 0 8-3l-25-70c-1-2-2-3-4-3m87 0c-3 0-4 2-4 4v71a4 4 0 0 0 8 0v-71c0-2-2-4-4-4m39-273a4 4 0 0 0-3 7c1 1 112 90 229 82 2 0 4-2 4-4-1-3-2-4-5-4-113 7-222-79-223-80l-2-1" style="fill:#fff"/><path transform="matrix(.13333 0 0 -.13333 0 533)" d="m2075 2302c-32 0-50-26-58-40 41 14 74 31 75 37l-9 2-8 1zm-66-51a4 4 0 0 0-4 6s25 60 79 52c7-1 16-3 16-10 2-15-56-36-90-48h-1m-460 416c-24-11-54-28-56-39 0-2 0-3 3-6 2-2 5-2 8-2 15 3 34 29 45 47zm-47-55c-4 0-8 2-11 4-6 5-6 10-6 13 4 22 65 48 72 51a4 4 0 0 0 5-6c-3-6-32-57-56-61l-4-1m4262-2151c0-22-7-48-20-54-13-7-122-21-217-11-91 9-110 17-116 27-4 5 3 30 11 53a707 707 0 0 1 340-1l2-14m594 10c-4-20-15-45-23-53-8-9-86-5-172-8-77-3-331 5-337 14-5 8-8 50-9 61 0 0 189-20 366-16 103 3 152 2 175 1m-701 160-2 1c-38 29-105 4-105 4-2-1-4 0-5 2s0 4 2 5c3 1 71 27 112-5a4 4 0 0 0-2-7m0-42-2 1c-46 32-105 8-105 8-2-1-4 0-5 2s0 4 2 5 63 26 112-9a4 4 0 0 0-2-7m438-54h-1c-2 1-4 3-3 5 1 1 12 35 76 47 2 1 4-1 4-3s-1-4-3-4c-59-11-70-42-70-42 0-2-2-3-3-3m-7 68c-2 0-4 1-4 3s1 4 3 4l44 9c2 1 4-1 4-3 1-2-1-4-3-4l-44-9m-30 35a4 4 0 0 0 0 8l38 5c3 0 4-1 5-3 0-2-2-4-4-4l-38-6h-1m-348-103h-1c-134 55-228 1-229 1a4 4 0 0 0-3 6c1 1 98 56 234 0a4 4 0 0 0-1-7m-991 63-3 2-45 58c-1 2-1 4 1 5 1 2 4 1 5 0l45-59a4 4 0 0 0-3-6m443 11h-2l-70 28a4 4 0 0 0 3 7l70-28a4 4 0 0 0-1-7" style="fill:#fff"/><path transform="matrix(.13333 0 0 -.13333 0 533)" d="m1708 552-12 3c-26 9-42 45-43 47a4 4 0 0 0 8 3s15-34 38-43c7-3 14-2 22 1 5 3 8 6 8 9 0 12-29 30-48 39-2 1-3 3-2 5s3 3 5 3c24-9 89-26 107-7 1 1 3 4 2 5-3 8-41 11-75 10-2 0-4 2-4 4s2 4 4 4c18 1 75 1 83-14 1-3 1-8-4-14-16-17-56-11-84-5 12-8 24-19 24-30 0-6-5-12-13-16-5-2-11-4-16-4m-464 223c-21 0-48 25-66 45 5-14 9-30 2-38-3-5-10-7-19-6-11 2-19 8-24 16-15 23-7 61-7 63 1 2 3 4 5 3 2 0 3-3 3-5 0 0-8-37 6-57 4-6 10-10 18-12 6-1 10 0 12 3 7 9-6 41-16 59-1 2 0 4 2 6 1 1 4 0 5-2 14-20 57-72 83-67 1 0 4 1 5 3 1 8-28 33-55 51a4 4 0 0 0 4 7c15-10 62-43 58-60 0-3-3-7-11-9h-5" style="fill:#ffae43"/><path transform="matrix(.13333 0 0 -.13333 0 533)" d="m512 1774a4 4 0 0 0-1 8c3 0 59 8 80 85a4 4 0 0 0 7-2c-22-82-85-91-86-91" style="fill:#fff"/><path transform="matrix(.13333 0 0 -.13333 0 533)" d="m607 2604c-45 0-78 27-78 27a4 4 0 0 0 5 6s58-46 124-12a4 4 0 1 0 4-7c-19-10-38-14-55-14" style="fill:#fdc300"/><path transform="matrix(.13333 0 0 -.13333 0 533)" d="m820 577a4 4 0 0 0-2 8l57 28a4 4 0 0 0 4-7l-57-29h-2m993 273c-2 0-4 2-4 4s2 4 4 4l307 15c2 0 4-1 4-4 0-2-2-4-4-4l-307-15"/><path transform="matrix(.13333 0 0 -.13333 0 533)" d="m6780 2519c-31 0-51 10-52 11a4 4 0 0 0 4 7c0-1 34-19 80-7s56 32 56 33c1 2 3 2 5 1 2 0 3-3 2-4s-12-24-61-37c-12-3-24-4-34-4m-402-167c-3-13-6-33 0-42 2-3 5-5 9-6 4 0 5 1 5 2 4 6-4 28-14 46zm10-55h-2c-6 1-11 4-14 9-11 17 1 55 2 56a4 4 0 0 0 6 1c5-8 28-48 18-61-1-3-4-5-10-5" style="fill:#ea573f"/><path transform="matrix(.13333 0 0 -.13333 0 533)" d="m6900 2194c-33-6-86-94-86-111 0-41 36-100 52-110 16-9 30 0 30 0s25-20 39-16c13 5 20 14 20 14s25-20 41-11 39 61 23 70c-16 10-30-9-30-9l10 24c11 28 13 59 5 89-11 36-37 73-104 60" style="fill:#f98875"/><path transform="matrix(.13333 0 0 -.13333 0 533)" d="m6979 2002 3 2 10 15a4 4 0 1 1-6 5l-10-15a4 4 0 0 1 3-7m-24-35c2 0 3 1 4 3 0 2-1 4-3 5-1 0-36 13-33 57 0 2-2 4-4 4s-4-2-4-4a62 62 0 0 1 40-65m-59 3 3 1c1 2 1 4-1 5 0 1-20 19-25 61a4 4 0 0 1-8-1c6-45 27-65 28-65l3-1m-91-1510c-2 0-4 1-4 3 0 1 0 67 58 100 2 1 4 1 5-1s1-4-1-5c-54-31-54-93-54-93 0-3-2-4-4-4"/><path transform="matrix(.13333 0 0 -.13333 0 533)" d="m7724 2102c-2 0-4 2-4 4l17 214c0 2 2 4 4 4s4-2 4-4l-17-215c0-2-2-3-4-3m-105 74c7 0 9 4 10 7 4 18-15 56-35 69zm1-7h-4c-2 0-3 1-3 3l-29 86a4 4 0 0 0 4 5c27-8 53-58 48-82-2-8-8-12-16-12m600-243-145 17c-2 0-3 2-3 4s2 4 4 3l144-16c3-1 4-2 4-4s-2-4-4-4" style="fill:#fff"/><path transform="matrix(.13333 0 0 -.13333 0 533)" d="m1927 2176s-10 73-43 50-46-155-7-168c40-14 50 118 50 118" style="fill:#f98875"/><path transform="matrix(.13333 0 0 -.13333 0 533)" d="m1987 2170s-10 72-43 49-46-155-6-168c39-13 49 119 49 119" style="fill:#f98875"/><path transform="matrix(.13333 0 0 -.13333 0 533)" d="m2043 2147s3 65-30 50c-32-16-63-129-31-146 33-18 61 96 61 96" style="fill:#f98875"/><path transform="matrix(.13333 0 0 -.13333 0 533)" d="m1915 2100c-3 0-4 2-4 5l6 79c0 2 2 3 4 3s4-2 4-4l-6-79c0-2-2-4-4-4m57-18h-1c-2 0-4 2-3 4l15 85c1 2 3 3 5 3 2-1 3-3 3-5l-15-84c-1-2-2-3-4-3"/><path transform="matrix(.13333 0 0 -.13333 0 533)" d="m3614 2106c-3 0-4 2-4 4l21 220c0 2 2 4 4 4 2-1 3-2 3-4l-20-220c-1-2-2-4-4-4" style="fill:#fff"/><path transform="matrix(.13333 0 0 -.13333 0 533)" d="m2491 2190h-1c-1 0-90 22-151 22a4 4 0 0 0 0 8c62 0 152-23 153-23a4 4 0 0 0-1-7" style="fill:#ea573f"/><path d="m154.15 307.4q-0.97656 0-2.0508-0.29297-7.9102-2.1484-15.381-2.1484-3.6621 0-7.8613 0.58593-4.1992 0.58594-8.9355 1.7578 0 6.4941-0.43946 19.287 2.7344-0.19532 19.092-1.8066 9.3262-0.92774 11.816-0.92774 2.8809 0 4.9316 1.8555 2.0508 1.8066 2.0508 4.834 0 5.8106-6.2012 6.5918-3.9062 0.29297-11.67 0.97656-6.9336 0.78125-20.898 1.9043-0.3418 6.2012-0.3418 10.01 0 9.5703 1.123 10.889 0.53711 0.63476 6.1523 0.63476 3.0273 0 9.1309-0.14648 6.1035-0.14648 9.1309-0.14648 0.97656 0 2.8809-0.29297 1.9043-0.29297 2.832-0.29297 2.832 0 4.834 1.6113 2.2949 1.8066 2.2949 5.0781 0 5.4688-5.7129 6.543-4.8828 0.92773-20.264 0.92773-15.918 0-20.752-4.2969-5.3223-4.7363-5.3223-20.508 0-6.543 0.92774-19.629 0.97656-13.135 0.97656-19.629 0-1.709-0.48828-5.0293-0.48828-3.3691-0.48828-5.0781 0-7.4219 6.8359-7.4219 2.1484 0 3.9551 1.2207 5.6641-1.416 10.742-2.0996 5.127-0.73242 9.668-0.73242 12.305 0 19.678 2.832 4.4922 1.709 4.4922 6.2012 0 2.5391-1.7578 4.4922-1.9531 2.2461-4.9805 2.2461zm76.318-0.63476q-6.4453 7.373-9.9609 12.305-3.7109 5.4199-11.914 15.771 5.127 7.1289 10.254 14.307 6.0547 8.3496 10.889 13.818 1.8066 2.0508 1.8066 4.3945 0 2.7344-2.0996 4.7363-2.0508 2.002-4.8828 2.002-4.834 0-12.646-11.133-2.0996-3.2227-6.4941-9.5703-2.0508-2.832-6.2012-8.4473-6.0059 6.7871-15.234 16.699-2.9297 3.3203-9.0332 9.668-2.1484 2.0508-4.9316 2.0508-2.832 0-4.9316-2.002-2.0996-1.9531-2.0996-4.6875 0-2.3438 1.709-4.2969 2.9785-3.125 8.8867-9.4238 6.4453-6.9336 17.236-19.043-4.9316-6.25-10.4-12.5-0.43945-0.48829-5.5664-7.1289-3.3692-4.3457-6.2012-6.543-2.7832-2.2461-2.7832-5.2734 0-2.5879 1.9531-4.6387 2.002-2.0996 4.9805-2.0996 2.6367 0 6.9336 3.7109 3.125 2.7344 5.1758 5.5176 2.0508 2.7344 6.1035 7.9102 4.6875 5.3223 9.0332 10.791 6.1523-8.1055 12.256-16.211 9.4726-11.719 12.939-11.719 2.832 0 4.9316 2.002 2.0996 1.9531 2.0996 4.6875 0 2.2949-1.8066 4.3457zm65.381 64.697q-3.8574-0.14648-7.7637-9.082-2.5879-5.7617-4.4434-13.281-3.6133 0.53711-11.816 1.0742-7.7148 0.53711-11.816 1.2695-2.2461 5.3711-7.8125 16.162-2.1484 3.5156-5.957 3.5156-2.6855 0-4.834-1.8066-2.1484-1.8555-2.1484-4.6875 0-2.4902 7.1289-16.895-0.6836-1.5137-0.58594-2.832 0.19531-2.3438 4.7363-3.6621 6.9336-12.012 15.43-24.902 12.207-18.506 15.039-18.506 5.3711 0 7.1777 6.4941 0.97657 5.2246 3.0762 15.674 2.9785 14.062 7.2754 32.178 0.34179 1.3672 2.4902 6.4453 1.7578 4.1992 1.7578 6.2988 0 2.832-2.1484 4.7363-2.0996 1.9043-4.7852 1.8066zm-18.213-50.098q-3.8086 6.543-10.498 17.822 2.1973-0.48828 6.8359-0.78125 5.4688-0.34179 6.8848-0.53711-1.1719-6.3476-3.2226-16.504zm56.152 10.059q-2.1973 7.9102-6.1523 23.877-0.92774 5.5176-1.8066 10.986-2.002 6.9336-7.373 6.9336-3.3691 0-5.3223-2.2949-1.6602-1.9531-1.6602-4.6387 0-7.9102 3.3691-19.287 5.0293-17.041 5.4199-18.896 1.416-7.5195 2.8809-15.039 2.1973-10.352 4.7363-13.77 2.5879-3.4668 6.4941-3.4668 4.4434 0 6.543 4.4922 1.9531 4.248 4.1992 17.383 2.1484 12.744 6.3965 27.441 5.5664-14.502 10.352-31.836l2.7344-11.23q2.6367-6.9824 8.1543-6.9824 5.3223 0 7.9102 8.1055 1.0742 3.2715 2.2949 12.207 2.832 20.801 7.1289 35.645 4.3457 15.088 4.3457 16.406 0 2.8809-2.2949 4.834-2.1484 1.7578-4.834 1.7578-5.3223 0-7.9102-7.6172l-2.7344-11.816q-2.3438-8.7891-5.0781-25.244-2.1973 6.543-7.2754 20.557l-2.9297 8.9844q-1.8066 5.3223-3.7598 8.7402-2.5879 4.541-7.2266 4.541-4.5898 0-7.0312-5.4199l-2.7344-9.082q-3.8086-12.5-6.8359-26.27zm152.54-19.141q-2.5391 0-13.916-1.3672-0.68359 8.9844-0.68359 23.877l-0.0488 21.924q6.4941-0.14648 13.232-0.14648 2.9297 0 4.834 1.9531 1.9531 1.9531 1.9531 4.6875 0 2.7344-1.9531 4.6875-1.9043 1.9043-4.834 1.9043-2.7344 0-8.2031 0.14648-5.4688 0.0977-8.2031 0.0977-3.2227 0-9.668 0.83008-6.4453 0.8789-9.668 0.8789-2.9297 0-4.8828-1.9043-1.9043-1.9531-1.9043-4.6875 0-2.7344 1.9043-4.6875 1.9531-1.9531 4.8828-1.9531 3.3203 0 8.7402-0.73242-0.0977-5.7617-0.0977-22.07 0-13.281 0.97656-25.342l-10.596 0.29297q-2.9297 0-4.9316-1.9043-1.9531-1.9043-1.9531-4.7363 0-2.8809 1.9531-4.6875 1.8066-1.6602 4.4434-1.9043 4.2969-0.39063 14.941-0.39063 9.5703 0 24.658 2.0508 6.0059 0.83008 6.0059 6.7383 0 3.125-2.4414 4.9316-2.002 1.5137-4.541 1.5137zm21.68 58.203q-2.8809-0.0488-4.834-1.9531-1.9531-1.9531-1.9531-4.6875 0-4.8828 0.43946-14.648 0.48828-9.7656 0.48828-14.648 0-5.4199-0.24414-16.26-0.19532-10.84-0.19532-16.26 0-2.6856 2.5879-5.3223 2.5879-2.6855 5.5176-2.6855 1.6113 0 8.1055 3.0273 7.5684 3.6133 8.9844 4.0527 14.307 4.6387 24.414 14.355 12.061 11.572 12.061 25.586 0 8.4473-4.1504 16.064-4.1504 7.7637-11.377 12.451-8.1055 5.2734-22.803 5.2734-3.5645 0-8.2031-1.0254-5.6152-1.2695-8.8379-3.3203zm27.441-50.195q-4.7363-2.9785-20.312-9.375v48.34q1.9043 1.2207 4.3457 1.8555 2.4902 0.58594 5.5176 0.58594 10.547 0 15.137-2.9297 4.3457-2.7832 6.8848-7.5684 2.5879-4.7852 2.5879-9.9609 0-12.109-14.16-20.947zm85.107-12.891q-0.97656 0-2.0508-0.29297-7.9102-2.1484-15.381-2.1484-3.6621 0-7.8613 0.58593-4.1992 0.58594-8.9356 1.7578 0 6.4941-0.43945 19.287 2.7344-0.19532 19.092-1.8066 9.3262-0.92774 11.816-0.92774 2.8809 0 4.9316 1.8555 2.0508 1.8066 2.0508 4.834 0 5.8106-6.2012 6.5918-3.9062 0.29297-11.67 0.97656-6.9336 0.78125-20.898 1.9043-0.3418 6.2012-0.3418 10.01 0 9.5703 1.123 10.889 0.5371 0.63476 6.1523 0.63476 3.0273 0 9.1309-0.14648 6.1035-0.14648 9.1309-0.14648 0.97656 0 2.8809-0.29297 1.9043-0.29297 2.832-0.29297 2.832 0 4.834 1.6113 2.2949 1.8066 2.2949 5.0781 0 5.4688-5.7129 6.543-4.8828 0.92773-20.264 0.92773-15.918 0-20.752-4.2969-5.3223-4.7363-5.3223-20.508 0-6.543 0.92774-19.629 0.97656-13.135 0.97656-19.629 0-1.709-0.48828-5.0293-0.48828-3.3691-0.48828-5.0781 0-7.4219 6.8359-7.4219 2.1484 0 3.9551 1.2207 5.6641-1.416 10.742-2.0996 5.127-0.73242 9.668-0.73242 12.305 0 19.678 2.832 4.4922 1.709 4.4922 6.2012 0 2.5391-1.7578 4.4922-1.9531 2.2461-4.9805 2.2461zm69.336 64.062q-3.8574-0.14648-7.7637-9.082-2.5879-5.7617-4.4434-13.281-3.6133 0.53711-11.816 1.0742-7.7148 0.53711-11.816 1.2695-2.2461 5.3711-7.8125 16.162-2.1484 3.5156-5.957 3.5156-2.6855 0-4.834-1.8066-2.1484-1.8555-2.1484-4.6875 0-2.4902 7.1289-16.895-0.6836-1.5137-0.58594-2.832 0.19531-2.3438 4.7363-3.6621 6.9336-12.012 15.43-24.902 12.207-18.506 15.039-18.506 5.3711 0 7.1777 6.4941 0.97656 5.2246 3.0762 15.674 2.9785 14.062 7.2754 32.178 0.3418 1.3672 2.4902 6.4453 1.7578 4.1992 1.7578 6.2988 0 2.832-2.1484 4.7363-2.0996 1.9043-4.7852 1.8066zm-18.213-50.098q-3.8086 6.543-10.498 17.822 2.1973-0.48828 6.8359-0.78125 5.4688-0.34179 6.8848-0.53711-1.1719-6.3476-3.2226-16.504zm136.96-9.9121q-3.8086 0-11.865-0.53711-7.7637-0.53711-11.865-0.48828 0.19531 5.5664 1.3184 19.824 1.0254 12.598 1.0254 19.922 0 1.6602 0.3418 4.9316 0.34179 3.2715 0.34179 4.9316 0 3.6621-1.5625 6.5918-2.002 3.7598-5.7129 3.7598-2.6855 0-4.7363-1.709-2.2949-1.9043-2.2949-4.7852 0-0.68359 0.24414-2.0508 0.24414-1.416 0.24414-2.1484 0-2.2461-0.34179-6.7871-0.29297-4.541-0.29297-6.8359 0-6.543-1.0254-17.725-1.1719-12.842-1.3672-17.725h-2.5391q-10.889 0-17.285-1.5625-5.4199-1.3184-5.4199-6.3965 0-2.4902 1.7578-4.4922 2.0508-2.3926 5.3711-2.1484 1.709 0.0977 7.7637 0.83008 4.834 0.53711 7.8125 0.53711 2.9785 0 8.8867-0.0977 5.957-0.0976 8.9355-0.0976 3.7109 0 11.133 0.5371 7.4219 0.48829 11.133 0.48829 2.9297 0 4.8828 1.9043 2.002 1.9043 2.002 4.6875 0 2.7832-2.002 4.7363-1.9531 1.9043-4.8828 1.9043zm60.449-4.0527q-0.97657 0-2.0508-0.29297-7.9102-2.1484-15.381-2.1484-3.6621 0-7.8613 0.58593-4.1992 0.58594-8.9356 1.7578 0 6.4941-0.43945 19.287 2.7344-0.19532 19.092-1.8066 9.3262-0.92774 11.816-0.92774 2.8809 0 4.9316 1.8555 2.0508 1.8066 2.0508 4.834 0 5.8106-6.2012 6.5918-3.9062 0.29297-11.67 0.97656-6.9336 0.78125-20.898 1.9043-0.3418 6.2012-0.3418 10.01 0 9.5703 1.123 10.889 0.53711 0.63476 6.1524 0.63476 3.0273 0 9.1308-0.14648 6.1035-0.14648 9.1309-0.14648 0.97657 0 2.8809-0.29297 1.9043-0.29297 2.832-0.29297 2.832 0 4.834 1.6113 2.2949 1.8066 2.2949 5.0781 0 5.4688-5.7129 6.543-4.8828 0.92773-20.264 0.92773-15.918 0-20.752-4.2969-5.3223-4.7363-5.3223-20.508 0-6.543 0.92773-19.629 0.97657-13.135 0.97657-19.629 0-1.709-0.48828-5.0293-0.48829-3.3691-0.48829-5.0781 0-7.4219 6.8359-7.4219 2.1484 0 3.9551 1.2207 5.6641-1.416 10.742-2.0996 5.127-0.73242 9.668-0.73242 12.305 0 19.678 2.832 4.4922 1.709 4.4922 6.2012 0 2.5391-1.7578 4.4922-1.9531 2.2461-4.9805 2.2461zm69.336 64.062q-3.8574-0.14648-7.7637-9.082-2.5879-5.7617-4.4434-13.281-3.6133 0.53711-11.816 1.0742-7.7148 0.53711-11.816 1.2695-2.2461 5.3711-7.8125 16.162-2.1484 3.5156-5.957 3.5156-2.6856 0-4.834-1.8066-2.1484-1.8555-2.1484-4.6875 0-2.4902 7.1289-16.895-0.68359-1.5137-0.58593-2.832 0.19531-2.3438 4.7363-3.6621 6.9336-12.012 15.43-24.902 12.207-18.506 15.039-18.506 5.3711 0 7.1777 6.4941 0.97656 5.2246 3.0762 15.674 2.9785 14.062 7.2754 32.178 0.3418 1.3672 2.4902 6.4453 1.7578 4.1992 1.7578 6.2988 0 2.832-2.1484 4.7363-2.0996 1.9043-4.7852 1.8066zm-18.213-50.098q-3.8086 6.543-10.498 17.822 2.1973-0.48828 6.8359-0.78125 5.4688-0.34179 6.8848-0.53711-1.1719-6.3476-3.2227-16.504zm56.152 10.059q-2.1973 7.9102-6.1524 23.877-0.92773 5.5176-1.8066 10.986-2.002 6.9336-7.373 6.9336-3.3691 0-5.3223-2.2949-1.6602-1.9531-1.6602-4.6387 0-7.9102 3.3691-19.287 5.0293-17.041 5.4199-18.896 1.416-7.5195 2.8809-15.039 2.1973-10.352 4.7363-13.77 2.5879-3.4668 6.4941-3.4668 4.4434 0 6.543 4.4922 1.9531 4.248 4.1992 17.383 2.1484 12.744 6.3965 27.441 5.5664-14.502 10.352-31.836l2.7343-11.23q2.6368-6.9824 8.1543-6.9824 5.3223 0 7.9102 8.1055 1.0742 3.2715 2.2949 12.207 2.832 20.801 7.1289 35.645 4.3457 15.088 4.3457 16.406 0 2.8809-2.2949 4.834-2.1484 1.7578-4.834 1.7578-5.3223 0-7.9101-7.6172l-2.7344-11.816q-2.3438-8.7891-5.0781-25.244-2.1973 6.543-7.2754 20.557l-2.9297 8.9844q-1.8067 5.3223-3.7598 8.7402-2.5879 4.541-7.2266 4.541-4.5898 0-7.0312-5.4199l-2.7344-9.082q-3.8086-12.5-6.8359-26.27z" style="fill:#545bc1;white-space:pre" aria-label="EXAM IDEA TEAM"/></svg>
